<svg width="31" height="27" viewBox="0 0 31 27" fill="none" xmlns="http://www.w3.org/2000/svg"><path d="M15.623 8.217a.593.593 0 0 0-.59.596c0 .33.264.596.59.596.325 0 .59-.267.59-.596a.593.593 0 0 0-.59-.596z"/><path d="M28.955 11.794H26.66C25.45 8.302 23.694 2.18 20.513.448c-1.59-.866-3.094-.261-3.66.967-.24.522-.72.796-1.23.796-.517 0-.993-.28-1.231-.796C13.847.23 12.379-.43 10.844.322 7.612 1.908 5.805 8.276 4.586 11.794H2.29c-.977 0-1.77.8-1.77 1.788 0 .986.794 1.789 1.77 1.789h26.665c.978 0 1.77-.8 1.77-1.789 0-.986-.794-1.788-1.77-1.788zM6.658 9.409h6.605c.326 0 .59-.267.59-.596a.593.593 0 0 0-.59-.596H7.071c1.778-4.964 3.44-6.406 4.288-6.823.926-.454 1.689-.074 1.963.524a2.513 2.513 0 0 0 2.3 1.486c.976 0 1.87-.549 2.301-1.486.283-.615 1.05-.955 2.03-.42.854.464 2.51 1.954 4.222 6.72h-6.192a.593.593 0 0 0-.59.595c0 .33.264.596.59.596h6.605c.298.87.608 1.766.822 2.385H5.836c.213-.617.523-1.512.822-2.385zm22.297 4.77H2.29a.594.594 0 0 1-.59-.597c0-.329.264-.596.59-.596h26.665c.326 0 .59.268.59.596a.593.593 0 0 1-.59.596zM14.443 17.755H5.004a.593.593 0 0 0-.59.596v2.385c0 2.958 2.382 5.365 5.31 5.365a5.3 5.3 0 0 0 4.962-3.456 2.242 2.242 0 0 1 1.873 0 5.3 5.3 0 0 0 4.963 3.456c2.928 0 5.31-2.407 5.31-5.365V18.35a.593.593 0 0 0-.59-.596h-9.44a.593.593 0 0 0-.59.596v.596h-1.18v-.596a.593.593 0 0 0-.59-.596zm-4.72 7.154c-2.277 0-4.13-1.872-4.13-4.173v-1.789h8.26v1.789c0 2.307-1.843 4.173-4.13 4.173zm7.67-5.962h8.259v1.789c0 2.3-1.853 4.173-4.13 4.173-2.293 0-4.13-1.872-4.13-4.173v-1.789zm-1.18 1.193v.596c0 .19.01.38.03.569a3.418 3.418 0 0 0-1.24 0c.019-.189.03-.379.03-.57v-.595h1.18z"/><path d="M9.723 22.524c-.976 0-1.77-.802-1.77-1.788a.593.593 0 0 0-.59-.596.593.593 0 0 0-.59.596c0 1.643 1.323 2.98 2.95 2.98.325 0 .59-.267.59-.596a.593.593 0 0 0-.59-.596zM21.523 23.716c1.626 0 2.95-1.337 2.95-2.98a.593.593 0 0 0-.59-.596.593.593 0 0 0-.59.596c0 .986-.794 1.788-1.77 1.788a.593.593 0 0 0-.59.596c0 .33.264.596.59.596z"/></svg>