<svg width="30" height="37" viewBox="0 0 30 37" xmlns="http://www.w3.org/2000/svg"><path d="M3.74 12.364l-1.5-1.492a2.07 2.07 0 0 1 0-2.938 2.104 2.104 0 0 1 2.957 0L6.8 9.526a14.696 14.696 0 0 1 5.574-2.341V5.119h-1.395a.695.695 0 0 1-.697-.693V2.625c0-1.146.938-2.078 2.091-2.078h5.578c1.154 0 2.092.932 2.092 2.078v1.8a.695.695 0 0 1-.697.694H17.95v2.066a14.695 14.695 0 0 1 5.574 2.341l1.603-1.592a2.104 2.104 0 0 1 2.958 0 2.07 2.07 0 0 1 0 2.938l-1.501 1.492a14.471 14.471 0 0 1 3.22 9.101c0 8.02-6.57 14.546-14.643 14.546S.521 29.486.521 21.465c0-3.32 1.139-6.527 3.22-9.101zm.471-3.45a.701.701 0 0 0-.986 0 .69.69 0 0 0 0 .979l1.44 1.431c.326-.331.666-.647 1.02-.946L4.211 8.914zM18.65 2.625a.696.696 0 0 0-.698-.693h-5.578a.696.696 0 0 0-.697.693v1.108h6.973V2.625zm-4.881 2.494v1.866a15.097 15.097 0 0 1 2.789 0V5.119h-2.789zM27.1 8.914a.701.701 0 0 0-.986 0l-1.474 1.464c.354.3.694.615 1.019.946l1.44-1.431a.69.69 0 0 0 0-.98zM15.162 34.626c7.305 0 13.248-5.904 13.248-13.16 0-3.202-1.17-6.286-3.294-8.686a13.281 13.281 0 0 0-9.954-4.475 13.283 13.283 0 0 0-9.954 4.475 13.095 13.095 0 0 0-3.293 8.685c0 7.257 5.943 13.16 13.247 13.16z" fill="currentColor"/><path d="M15.162 23.543a2.087 2.087 0 0 1-2.092-2.078c0-.903.583-1.673 1.395-1.959V14.54c0-.383.312-.693.697-.693.385 0 .697.31.697.693v4.967a2.082 2.082 0 0 1 1.395 1.96 2.087 2.087 0 0 1-2.092 2.077zm0-2.77a.696.696 0 0 0-.697.692c0 .382.313.693.697.693.385 0 .697-.31.697-.693a.696.696 0 0 0-.697-.692z" fill="currentColor"/><path d="M7.735 14.158a.55.55 0 0 1 .034-.038l.04-.037a10.51 10.51 0 0 1 4.395-2.585.692.692 0 1 1 .395 1.329 9.105 9.105 0 0 0-3.33 1.804l.47.467a.69.69 0 0 1 0 .98.698.698 0 0 1-.986 0l-.471-.468a8.89 8.89 0 0 0-2.157 5.163h.67c.386 0 .698.31.698.692a.695.695 0 0 1-.698.693h-.67a8.889 8.889 0 0 0 2.157 5.163l.471-.469a.701.701 0 0 1 .986 0 .69.69 0 0 1 0 .98l-.471.468a9.012 9.012 0 0 0 5.197 2.143v-.666c0-.383.312-.693.697-.693.385 0 .697.31.697.693v.666a9.01 9.01 0 0 0 5.197-2.143l-.47-.468a.69.69 0 0 1 0-.98.7.7 0 0 1 .985 0l.472.469a8.89 8.89 0 0 0 2.157-5.163h-.671a.695.695 0 0 1-.697-.693c0-.382.312-.692.697-.692h.67a8.89 8.89 0 0 0-2.156-5.163l-.472.468a.697.697 0 0 1-.986 0 .69.69 0 0 1 0-.98l.47-.467a9.1 9.1 0 0 0-3.33-1.804.692.692 0 1 1 .395-1.329 10.508 10.508 0 0 1 4.435 2.622l.034.037a10.284 10.284 0 0 1 3.032 7.308c0 2.755-1.077 5.347-3.031 7.308a.541.541 0 0 1-.035.037c-.011.012-.024.023-.037.034a10.422 10.422 0 0 1-7.356 3.011 10.421 10.421 0 0 1-7.356-3.01l-.037-.035-.034-.037a10.284 10.284 0 0 1-3.031-7.308c0-2.754 1.076-5.347 3.03-7.307z" fill="currentColor"/><path d="M15.162 12.46a.695.695 0 0 1-.697-.692c0-.382.312-.693.697-.693.385 0 .697.31.697.693a.695.695 0 0 1-.697.693z" fill="currentColor"/></svg>
