<svg width="32" height="33" viewBox="0 0 32 33" fill="none" xmlns="http://www.w3.org/2000/svg"><path d="M28.364 26.192c.339-.477.54-1.061.54-1.694v-3.776a.623.623 0 0 0-.618-.629h-2.76c-1.275 0-2.313 1.057-2.313 2.355v2.05c0 .632.2 1.217.54 1.693-.423.07-.829.207-1.208.409a5.239 5.239 0 0 0-3.878-2.353l-.019-.005c.578-.657.93-1.523.93-2.472v-5.133a.623.623 0 0 0-.617-.629h-3.75c-1.612 0-2.923 1.335-2.923 2.975v2.787c0 .948.352 1.815.93 2.472l-.019.005A5.238 5.238 0 0 0 9.321 26.6a3.932 3.932 0 0 0-1.207-.409 2.915 2.915 0 0 0 .539-1.692v-3.777a.623.623 0 0 0-.618-.629H5.276c-1.275 0-2.313 1.057-2.313 2.355v2.05c0 .633.2 1.217.54 1.694-1.912.318-3.375 2.01-3.375 4.044v1.862c0 .347.276.628.617.628h30.376a.623.623 0 0 0 .617-.628v-1.862c0-2.034-1.463-3.726-3.374-4.044zM4.198 22.448a1.09 1.09 0 0 1 1.078-1.098h2.142v.766c0 .375-.3.68-.668.68H4.198v-.348zm0 1.605H6.75c.235 0 .46-.044.668-.123v.569c0 .903-.722 1.639-1.61 1.639-.888 0-1.61-.736-1.61-1.64v-.445zm2.008 3.342l-.398.405-.398-.405h.796zm2.23 2.172v1.902H1.362v-1.233c0-1.41 1.014-2.582 2.338-2.803l1.67 1.7a.612.612 0 0 0 .873 0l1.671-1.701c.296.049.58.146.844.288a5.403 5.403 0 0 0-.324 1.847zm7.497-5.344c-1.329 0-2.41-1.1-2.41-2.453v-.831h3.69c.41 0 .794-.107 1.13-.293v1.124c0 1.352-1.08 2.453-2.41 2.453zm1.076 1.257l-1.076 1.096-1.076-1.096h2.152zm-3.486-6.497c0-.947.757-1.718 1.688-1.718h3.132v1.266c0 .635-.507 1.151-1.13 1.151h-3.69v-.7zm8.673 12.486H9.67v-1.257h4.02c.34 0 .617-.281.617-.628a.623.623 0 0 0-.617-.629H9.715c.265-1.786 1.67-3.196 3.433-3.437l2.349 2.39a.61.61 0 0 0 .873 0l2.349-2.39c1.96.268 3.477 1.981 3.477 4.05v1.901zm2.252-9.02a1.09 1.09 0 0 1 1.079-1.099h2.142v.766c0 .375-.3.68-.669.68h-2.552v-.348zm0 1.604H27c.235 0 .46-.044.669-.123v.569c0 .903-.723 1.639-1.61 1.639-.889 0-1.61-.736-1.61-1.64v-.445zm2.008 3.342l-.398.405-.398-.405h.796zm-3.025 4.074v-1.902c0-.65-.114-1.271-.324-1.848.265-.142.549-.238.844-.287l1.67 1.701a.612.612 0 0 0 .874 0l1.67-1.7c1.325.22 2.339 1.393 2.339 2.803v1.233H23.43zM18.976 4.653a.61.61 0 0 0-.873 0l-3.03 3.085-1.31-1.334a.61.61 0 0 0-.872 0 .637.637 0 0 0 0 .89l1.746 1.777a.612.612 0 0 0 .873 0l3.466-3.529a.637.637 0 0 0 0-.889z" fill="currentColor"/><path d="M18.459 1.092a.613.613 0 0 0-.816.318.633.633 0 0 0 .313.83c1.79.813 2.947 2.627 2.947 4.622 0 2.79-2.229 5.058-4.969 5.058s-4.968-2.269-4.968-5.058c0-1.985 1.148-3.795 2.926-4.612a.633.633 0 0 0 .308-.832.613.613 0 0 0-.816-.314c-2.22 1.02-3.653 3.28-3.653 5.758 0 3.482 2.783 6.315 6.203 6.315 3.421 0 6.204-2.833 6.204-6.315 0-2.49-1.444-4.755-3.68-5.77z" fill="currentColor"/><path d="M15.955.547h-.022a.623.623 0 0 0-.617.628c0 .348.276.629.617.629h.02c.34 0 .615-.28.617-.626a.623.623 0 0 0-.615-.631zM16.37 29.14a.616.616 0 0 0-.437-.185.616.616 0 0 0-.436.184.64.64 0 0 0 0 .889.617.617 0 0 0 .436.184.616.616 0 0 0 .437-.184.639.639 0 0 0 0-.889z" fill="currentColor"/></svg>
