<svg xmlns="http://www.w3.org/2000/svg" xmlns:xlink="http://www.w3.org/1999/xlink"><symbol id="message" viewBox="0 0 19 14"><path d="M16.68 0H2.323C1.042 0 0 1.009 0 2.25v9.5C0 12.991 1.042 14 2.323 14h14.354C17.958 14 19 12.991 19 11.75V2.253C19.004 1.013 17.962 0 16.68 0zm1.262 11.75c0 .674-.566 1.222-1.262 1.222H2.323c-.695 0-1.262-.548-1.262-1.222V2.253c0-.673.567-1.221 1.262-1.221h14.354c.695 0 1.262.548 1.262 1.221v9.497h.003z" fill="#00B2FF"/><path d="M11.983 6.882l4.646-4.035a.505.505 0 0 0 .04-.727.546.546 0 0 0-.751-.038L9.51 7.651 8.26 6.57c-.004-.004-.008-.008-.008-.012a.778.778 0 0 0-.087-.072L3.078 2.078a.542.542 0 0 0-.75.042.502.502 0 0 0 .043.727l4.702 4.07L2.39 11.16a.504.504 0 0 0-.023.727.541.541 0 0 0 .75.027l4.754-4.305L9.16 8.724a.54.54 0 0 0 .708-.004l1.325-1.15 4.725 4.348c.102.095.236.14.366.14.141 0 .279-.053.385-.16a.504.504 0 0 0-.02-.726l-4.666-4.29z" fill="#00B2FF"/></symbol><symbol id="phone-call" viewBox="0 0 18 18"><path d="M14.233 11.15c-.369-.383-.814-.588-1.286-.588-.468 0-.917.2-1.3.585l-1.203 1.196c-.099-.053-.198-.102-.293-.152a4.832 4.832 0 0 1-.377-.201c-1.126-.714-2.15-1.645-3.13-2.85-.476-.6-.796-1.105-1.028-1.618.312-.285.601-.581.883-.866l.32-.323c.798-.798.798-1.831 0-2.629l-1.04-1.037c-.117-.118-.24-.24-.353-.36A17.952 17.952 0 0 0 4.71 1.6c-.369-.365-.81-.559-1.274-.559-.464 0-.913.194-1.294.559l-.007.007L.84 2.91a2.778 2.778 0 0 0-.825 1.767c-.092 1.11.236 2.142.487 2.819.616 1.66 1.537 3.198 2.91 4.847a17.9 17.9 0 0 0 5.962 4.662c.875.414 2.043.904 3.348.987.08.004.163.008.24.008.878 0 1.617-.315 2.195-.942.004-.008.011-.012.015-.02.198-.239.426-.455.666-.687.163-.156.33-.319.494-.49.377-.391.575-.847.575-1.314 0-.471-.202-.924-.586-1.303l-2.089-2.094zm1.362 4c-.004 0-.004.005 0 0-.148.16-.3.305-.464.464a9.977 9.977 0 0 0-.734.76c-.384.41-.837.604-1.43.604-.058 0-.119 0-.176-.004-1.13-.072-2.18-.513-2.967-.889a16.898 16.898 0 0 1-5.616-4.391C2.911 10.132 2.043 8.689 1.47 7.139c-.354-.946-.483-1.683-.426-2.379.038-.444.21-.813.525-1.128l1.297-1.295c.187-.175.385-.27.579-.27.24 0 .433.144.555.266l.011.011c.233.217.453.44.685.68.118.122.24.243.362.369L6.095 4.43c.404.403.404.775 0 1.178-.11.11-.217.22-.327.326-.32.327-.624.63-.955.927-.007.008-.015.012-.019.02-.327.326-.266.645-.198.862l.012.034c.27.653.65 1.269 1.229 2.002l.003.004c1.05 1.291 2.158 2.298 3.379 3.07.156.098.316.178.468.254.137.068.266.133.377.201.015.008.03.02.045.027.13.064.251.095.377.095.316 0 .513-.198.578-.262l1.301-1.3c.13-.129.335-.285.575-.285.236 0 .43.149.548.278l.007.007 2.097 2.094c.391.387.391.786.003 1.189zM9.728 4.282a4.827 4.827 0 0 1 2.626 1.36 4.84 4.84 0 0 1 1.362 2.621.51.51 0 0 0 .506.426c.03 0 .057-.004.087-.008a.513.513 0 0 0 .422-.593 5.856 5.856 0 0 0-1.647-3.172 5.871 5.871 0 0 0-3.177-1.645.516.516 0 0 0-.593.418.507.507 0 0 0 .414.593zM17.992 7.94a9.635 9.635 0 0 0-2.713-5.223 9.659 9.659 0 0 0-5.23-2.71.512.512 0 1 0-.168 1.011c1.773.3 3.39 1.14 4.676 2.42a8.601 8.601 0 0 1 2.423 4.67.51.51 0 0 0 .506.425c.03 0 .057-.004.088-.008a.503.503 0 0 0 .418-.585z" fill="#00B2FF"/></symbol></svg>